<?xml version="1.0" encoding="UTF-8"?>
<svg version="1.1" xmlns="http://www.w3.org/2000/svg" width="256" height="256">
<path d="M0 0 C0.81418593 -0.00438225 1.62837185 -0.00876451 2.46723008 -0.01327956 C5.21092341 -0.02669461 7.9545846 -0.03285248 10.69830322 -0.03897095 C12.6592829 -0.04686978 14.62026112 -0.05513859 16.58123779 -0.06375122 C23.03463345 -0.08999644 29.48803568 -0.10528124 35.94146729 -0.11953735 C38.16085057 -0.12489598 40.38023381 -0.13027349 42.599617 -0.13566971 C51.82999483 -0.15730199 61.0603709 -0.17603961 70.29076767 -0.1872921 C83.53026619 -0.20353667 96.76947145 -0.23672297 110.0088594 -0.29369295 C119.31167667 -0.33236217 128.61441541 -0.35192122 137.91731095 -0.35721266 C143.47655974 -0.36087021 149.03549594 -0.37293452 154.5946579 -0.4053154 C159.82483164 -0.43534279 165.05450277 -0.44172679 170.28474426 -0.42993164 C172.20441306 -0.42971046 174.12410481 -0.43805213 176.04369354 -0.45558548 C178.66515286 -0.47822626 181.28478186 -0.47000654 183.90625 -0.45410156 C184.66559837 -0.46798365 185.42494674 -0.48186574 186.20730567 -0.49616849 C191.97420709 -0.40998242 194.31484007 1.19538832 198.20709229 5.15390015 C199.50970612 7.75912781 199.34485826 9.67439482 199.36099243 12.5930481 C199.3695929 13.74827972 199.37819336 14.90351135 199.38705444 16.09375 C199.39344437 18.00442764 199.39344437 18.00442764 199.39996338 19.95370483 C199.40786392 21.3038555 199.41613284 22.65400406 199.42474365 24.00415039 C199.45097172 28.44467144 199.46627314 32.88520195 199.48052979 37.32577515 C199.48588935 38.85423031 199.49126686 40.38268541 199.49666214 41.91114044 C199.51829299 48.26948097 199.53702934 54.62781896 199.54828453 60.98618698 C199.56452101 70.09883267 199.5976886 79.21105177 199.65468538 88.32353663 C199.69339253 94.73041183 199.71291817 101.13717298 199.71820509 107.54416203 C199.72185787 111.37083951 199.73387007 115.19706209 199.76630783 119.02361298 C199.79640234 122.6254328 199.80269603 126.22652286 199.79092407 129.82844162 C199.79059844 131.7763426 199.81505573 133.72419863 199.84030151 135.67193604 C199.77218625 145.22382308 199.77218625 145.22382308 196.79562378 148.92373657 C192.66487186 152.48260866 189.66427376 152.3043988 184.41418457 152.30780029 C183.59999864 152.31218255 182.78581272 152.3165648 181.94695449 152.32107985 C179.20326116 152.3344949 176.45959997 152.34065277 173.71588135 152.34677124 C171.75490167 152.35467007 169.79392345 152.36293888 167.83294678 152.37155151 C161.37955112 152.39779674 154.92614889 152.41308153 148.47271729 152.42733765 C146.253334 152.43269628 144.03395076 152.43807378 141.81456757 152.44347 C132.58418974 152.46510228 123.35381367 152.4838399 114.1234169 152.49509239 C100.88391838 152.51133696 87.64471312 152.54452327 74.40532517 152.60149324 C65.1025079 152.64016247 55.79976916 152.65972151 46.49687362 152.66501296 C40.93762483 152.66867051 35.37868863 152.68073481 29.81952667 152.71311569 C24.58935294 152.74314308 19.3596818 152.74952708 14.12944031 152.73773193 C12.20977151 152.73751075 10.29007976 152.74585243 8.37049103 152.76338577 C5.74903171 152.78602655 3.12940271 152.77780683 0.50793457 152.76190186 C-0.2514138 152.77578394 -1.01076217 152.78966603 -1.7931211 152.80396879 C-7.56002252 152.71778271 -9.90065549 151.11241198 -13.79290771 147.15390015 C-15.09552155 144.54867248 -14.93067369 142.63340548 -14.94680786 139.7147522 C-14.95540833 138.55952057 -14.96400879 137.40428894 -14.97286987 136.21405029 C-14.97712982 134.9402652 -14.98138977 133.6664801 -14.98577881 132.35409546 C-14.99367935 131.00394479 -15.00194827 129.65379623 -15.01055908 128.3036499 C-15.03678715 123.86312885 -15.05208856 119.42259834 -15.06634521 114.98202515 C-15.07170478 113.45356999 -15.07708229 111.92511489 -15.08247757 110.39665985 C-15.10410842 104.03831932 -15.12284477 97.67998133 -15.13409996 91.32161331 C-15.15033644 82.20896762 -15.18350403 73.09674852 -15.24050081 63.98426366 C-15.27920796 57.57738846 -15.2987336 51.17062731 -15.30402052 44.76363826 C-15.3076733 40.93696078 -15.3196855 37.1107382 -15.35212326 33.28418732 C-15.38221777 29.68236749 -15.38851146 26.08127744 -15.3767395 22.47935867 C-15.37641387 20.53145769 -15.40087116 18.58360166 -15.42611694 16.63586426 C-15.35800168 7.08397721 -15.35800168 7.08397721 -12.38143921 3.38406372 C-8.25068729 -0.17480836 -5.25008919 0.00340149 0 0 Z " fill="#EEEEEE" transform="translate(35.79290771484375,51.846099853515625)"/>
<path d="M0 0 C0.81700819 -0.00226556 1.63401638 -0.00453111 2.47578239 -0.00686532 C5.2288235 -0.0132239 7.98181562 -0.01237478 10.73486328 -0.0115509 C12.7023322 -0.0145412 14.66980052 -0.01794343 16.63726807 -0.02172852 C21.99248816 -0.03058499 27.3476923 -0.03290729 32.70291901 -0.0335443 C37.16648211 -0.03449191 41.63004147 -0.03816842 46.09360313 -0.0417164 C56.6192074 -0.0498669 67.1448031 -0.05230005 77.67041016 -0.05158997 C88.54607362 -0.05098872 99.42168756 -0.06154848 110.29733849 -0.07733363 C119.62047752 -0.09038568 128.94360032 -0.09577486 138.26674843 -0.09513456 C143.84140385 -0.09487892 149.41601526 -0.09776627 154.99066162 -0.10831261 C160.23055507 -0.11795463 165.47036208 -0.11809972 170.71025848 -0.11079597 C172.63803991 -0.10974532 174.56582661 -0.11214126 176.49359894 -0.11815643 C179.1159533 -0.12581169 181.73800428 -0.12127493 184.36035156 -0.11352539 C185.1313513 -0.11866895 185.90235104 -0.12381252 186.6967144 -0.12911195 C191.95190438 -0.09455864 191.95190438 -0.09455864 194.18017578 2.13371277 C168.44017578 27.87371277 142.70017578 53.61371277 116.18017578 80.13371277 C120.14370758 84.7578332 124.0669857 89.16271947 128.36914062 93.436203 C129.24827621 94.31555763 129.24827621 94.31555763 130.14517212 95.212677 C132.05812182 97.12493721 133.97457491 99.03364363 135.89111328 100.94230652 C137.22797174 102.27729736 138.5646077 103.61251104 139.90103149 104.94793701 C143.40043558 108.44354294 146.90283348 111.93613391 150.40588379 115.42808533 C153.98742443 118.99935347 157.56609734 122.57349278 161.14501953 126.14738464 C168.15394968 133.14562517 175.16604903 140.14068091 182.18017578 147.13371277 C179.18017578 147.13371277 179.18017578 147.13371277 177.63720703 145.84855652 C176.82316406 144.96877136 176.82316406 144.96877136 175.99267578 144.07121277 C172.91617882 140.8595559 169.71406236 137.92019906 166.34814453 135.01652527 C163.93174627 132.91795957 161.55488554 130.77931577 159.18017578 128.63371277 C156.19954858 125.94387846 153.20772345 123.27060913 150.18017578 120.63371277 C146.28504767 117.24118184 142.45234815 113.78177076 138.61767578 110.32121277 C135.85141394 107.83867009 133.0539788 105.39431054 130.25048828 102.95402527 C127.83189617 100.82748956 125.44363616 98.6690217 123.05517578 96.50871277 C122.21470703 95.75590027 121.37423828 95.00308777 120.50830078 94.22746277 C119.11044205 92.97032807 117.72175331 91.70271728 116.35205078 90.41496277 C113.75403299 87.88599531 113.75403299 87.88599531 110.36767578 87.17277527 C107.10591381 88.60562071 104.95835357 91.08274598 102.55517578 93.63371277 C96.19795971 100.27533061 96.19795971 100.27533061 91.05517578 100.63371277 C85.94479629 100.58449563 83.59105372 98.58146541 80.04345703 95.09074402 C79.42857422 94.44492371 78.81369141 93.79910339 78.18017578 93.13371277 C77.01397537 91.9874049 75.84735477 90.84152423 74.68017578 89.69621277 C73.85517578 88.85058777 73.03017578 88.00496277 72.18017578 87.13371277 C67.60863162 88.38049754 65.22657451 90.90081216 62.05517578 94.21574402 C59.6113478 96.71557639 56.9936841 98.96867464 54.34814453 101.25090027 C51.93174627 103.34946597 49.55488554 105.48810977 47.18017578 107.63371277 C43.56341233 110.89762125 39.9162797 114.12162226 36.24267578 117.32121277 C33.8705315 119.40582441 31.52461513 121.51799921 29.18017578 123.63371277 C27.51350911 125.13371277 25.84684245 126.63371277 24.18017578 128.13371277 C23.42994141 128.81304871 22.67970703 129.49238464 21.90673828 130.19230652 C21.21322266 130.81234558 20.51970703 131.43238464 19.80517578 132.07121277 C19.19931641 132.61648621 18.59345703 133.16175964 17.96923828 133.72355652 C16.1247518 135.17739848 14.28856679 136.11550221 12.18017578 137.13371277 C16.64508287 130.60041696 21.97860077 125.05696947 27.59277344 119.51530457 C29.05088081 118.07545396 30.5008248 116.62776203 31.94970703 115.17863464 C36.573481 110.57261957 41.26823114 106.1052502 46.21923828 101.85221863 C50.02340052 98.51836679 53.63283143 94.98765352 57.24267578 91.44621277 C58.02578125 90.70049011 58.80888672 89.95476746 59.61572266 89.18644714 C60.34984375 88.46392761 61.08396484 87.74140808 61.84033203 86.99699402 C62.50685791 86.35028748 63.17338379 85.70358093 63.86010742 85.03727722 C65.40953915 83.25333879 65.40953915 83.25333879 64.94815159 81.22275925 C64.0597455 78.80611853 63.03327192 77.61692695 61.21263123 75.80540466 C60.58019501 75.16884445 59.94775879 74.53228424 59.29615784 73.87643433 C58.59844772 73.18951004 57.90073761 72.50258575 57.18188477 71.79484558 C56.45022095 71.06274368 55.71855713 70.33064178 54.96472168 69.57635498 C52.54228005 67.15600493 50.10938201 64.74645658 47.67626953 62.33683777 C45.99552773 60.66169058 44.31544665 58.98588023 42.63600159 57.30943298 C38.21204251 52.89693318 33.77914846 48.49351606 29.34436035 44.09190369 C24.82133126 39.5995519 20.30677334 35.0987051 15.79150391 30.59855652 C6.92935209 21.76858799 -1.94197377 12.94789594 -10.81982422 4.13371277 C-10.48982422 3.14371277 -10.15982422 2.15371277 -9.81982422 1.13371277 C-6.70954203 -0.42142833 -3.41381631 -0.00685687 0 0 Z " fill="#DDDDDD" transform="translate(35.81982421875,51.86628723144531)"/>
<path d="M0 0 C0.99 0.66 1.98 1.32 3 2 C-22.74 27.74 -48.48 53.48 -75 80 C-71.0364682 84.62412043 -67.11319009 89.0290067 -62.81103516 93.30249023 C-61.93189957 94.18184486 -61.93189957 94.18184486 -61.03500366 95.07896423 C-59.12205396 96.99122444 -57.20560087 98.89993086 -55.2890625 100.80859375 C-53.95220405 102.14358459 -52.61556808 103.47879827 -51.27914429 104.81422424 C-47.77974021 108.30983017 -44.2773423 111.80242114 -40.77429199 115.29437256 C-37.19275135 118.8656407 -33.61407844 122.43978002 -30.03515625 126.01367188 C-23.0262261 133.01191241 -16.01412676 140.00696815 -9 147 C-12 147 -12 147 -13.54296875 145.71484375 C-14.35701172 144.83505859 -14.35701172 144.83505859 -15.1875 143.9375 C-18.26399696 140.72584313 -21.46611342 137.78648629 -24.83203125 134.8828125 C-27.24842951 132.7842468 -29.62529024 130.645603 -32 128.5 C-34.98062721 125.81016569 -37.97245233 123.13689636 -41 120.5 C-44.89512811 117.10746907 -48.72782763 113.64805799 -52.5625 110.1875 C-55.32876184 107.70495732 -58.12619698 105.26059777 -60.9296875 102.8203125 C-63.34827961 100.6937768 -65.73653963 98.53530894 -68.125 96.375 C-68.96546875 95.6221875 -69.8059375 94.869375 -70.671875 94.09375 C-72.06973374 92.8366153 -73.45842247 91.56900451 -74.828125 90.28125 C-77.42614279 87.75228254 -77.42614279 87.75228254 -80.8125 87.0390625 C-84.07426197 88.47190794 -86.22182222 90.94903321 -88.625 93.5 C-94.98221607 100.14161784 -94.98221607 100.14161784 -100.125 100.5 C-105.23537949 100.45078286 -107.58912206 98.44775264 -111.13671875 94.95703125 C-111.75160156 94.31121094 -112.36648437 93.66539062 -113 93 C-114.16620041 91.85369213 -115.33282101 90.70781146 -116.5 89.5625 C-117.325 88.716875 -118.15 87.87125 -119 87 C-123.57154416 88.24678477 -125.95360127 90.76709939 -129.125 94.08203125 C-131.56882798 96.58186362 -134.18649168 98.83496187 -136.83203125 101.1171875 C-139.24842951 103.2157532 -141.62529024 105.354397 -144 107.5 C-147.61676345 110.76390848 -151.26389608 113.98790949 -154.9375 117.1875 C-157.30964429 119.27211164 -159.65556065 121.38428644 -162 123.5 C-163.66666667 125 -165.33333333 126.5 -167 128 C-167.75023437 128.67933594 -168.50046875 129.35867187 -169.2734375 130.05859375 C-169.96695313 130.67863281 -170.66046875 131.29867187 -171.375 131.9375 C-171.98085937 132.48277344 -172.58671875 133.02804688 -173.2109375 133.58984375 C-175.05542398 135.04368571 -176.89160899 135.98178945 -179 137 C-174.53509291 130.46670419 -169.20157501 124.9232567 -163.58740234 119.3815918 C-162.12929497 117.94174119 -160.67935098 116.49404926 -159.23046875 115.04492188 C-154.60669479 110.4389068 -149.91194464 105.97153743 -144.9609375 101.71850586 C-141.15677526 98.38465402 -137.54734435 94.85394075 -133.9375 91.3125 C-133.15439453 90.56677734 -132.37128906 89.82105469 -131.56445312 89.05273438 C-130.83033203 88.33021484 -130.09621094 87.60769531 -129.33984375 86.86328125 C-128.67331787 86.21657471 -128.00679199 85.56986816 -127.32006836 84.90356445 C-125.77063663 83.11962602 -125.77063663 83.11962602 -126.23202419 81.08904648 C-127.12043028 78.67240577 -128.14690386 77.48321419 -129.96754456 75.67169189 C-130.59998077 75.03513168 -131.23241699 74.39857147 -131.88401794 73.74272156 C-132.58172806 73.05579727 -133.27943817 72.36887299 -133.99829102 71.66113281 C-134.72995483 70.92903091 -135.46161865 70.19692902 -136.2154541 69.44264221 C-138.63789573 67.02229216 -141.07079377 64.61274381 -143.50390625 62.203125 C-145.18464805 60.52797781 -146.86472913 58.85216746 -148.54417419 57.17572021 C-152.96813327 52.76322041 -157.40102732 48.3598033 -161.83581543 43.95819092 C-166.35884452 39.46583913 -170.87340244 34.96499233 -175.38867188 30.46484375 C-184.25082369 21.63487522 -193.12214955 12.81418317 -202 4 C-201.67 3.01 -201.34 2.02 -201 1 C-197.7582514 2.42389821 -195.6067945 4.14751811 -193.11569214 6.65052795 C-192.35580994 7.40910599 -191.59592773 8.16768402 -190.8130188 8.94924927 C-189.98897552 9.78205414 -189.16493225 10.61485901 -188.31591797 11.47290039 C-187.4407251 12.3494075 -186.56553223 13.22591461 -185.66381836 14.12898254 C-183.76377632 16.03328873 -181.86565928 17.93930552 -179.97057724 19.84852791 C-176.9755235 22.86586135 -173.97338507 25.8760782 -170.97024536 28.88536072 C-166.22321354 33.64376697 -161.48088015 38.40682423 -156.740574 43.17192978 C-148.24535354 51.7115125 -139.74450779 60.2454868 -131.23846161 68.77428621 C-128.25250591 71.76866149 -125.2693821 74.76582203 -122.28848624 77.76523411 C-120.00263805 80.06419634 -117.7136786 82.36005808 -115.42529297 84.65649414 C-114.59720123 85.49132324 -113.7691095 86.32615234 -112.91592407 87.1862793 C-111.78456024 88.31991661 -111.78456024 88.31991661 -110.63034058 89.47645569 C-109.64536244 90.46671297 -109.64536244 90.46671297 -108.64048576 91.47697544 C-105.49614267 94.39617893 -102.57448927 94.53242269 -98.41796875 94.453125 C-93.77201371 93.58247753 -91.16898241 90.30772945 -88 87 C-86.52330599 85.51447595 -85.03969535 84.03605442 -83.5559082 82.55761719 C-82.5527786 81.55338576 -81.55479378 80.54397569 -80.56323242 79.52832031 C-77.89121833 76.80505218 -75.14754885 74.23341204 -72.25158691 71.74839783 C-68.29317224 68.29923135 -64.55003295 64.68547286 -60.84960938 60.96313477 C-60.18519836 60.29886978 -59.52078735 59.6346048 -58.83624268 58.95021057 C-56.66969579 56.7829744 -54.50669938 54.61223229 -52.34375 52.44140625 C-50.83082644 50.926615 -49.31768 49.41204632 -47.80432129 47.89768982 C-43.84348026 43.9330512 -39.88565298 39.96541749 -35.9284668 35.99713135 C-31.88122661 31.93961743 -27.83111435 27.88497254 -23.78125 23.83007812 C-15.85136888 15.88950839 -7.92467179 7.9457684 0 0 Z " fill="#CDCCCC" transform="translate(227,52)"/>
<path d="M0 0 C0.66 0.33 1.32 0.66 2 1 C-1.3 4.3 -4.6 7.6 -8 11 C16.42578083 11.07004776 40.85154664 11.12296743 65.27740765 11.15543652 C76.61848493 11.17091246 87.95949985 11.19201592 99.30053711 11.22631836 C109.18414581 11.25619839 119.06770934 11.27556971 128.95136195 11.28226548 C134.18580357 11.2861801 139.42011597 11.29539518 144.65451622 11.31719017 C149.58005575 11.33753321 154.50541267 11.3438382 159.43099022 11.33932304 C161.23980196 11.34014922 163.04861973 11.34612783 164.85739517 11.35761642 C167.32566196 11.37252648 169.79323785 11.36895921 172.26152039 11.36076355 C173.33692149 11.37387134 173.33692149 11.37387134 174.43404788 11.38724393 C178.80666663 11.34795848 181.51275433 10.65539838 185 8 C187.27537692 5.42816686 187.27537692 5.42816686 189 3 C188.82763292 7.39536046 188.52362774 9.44314332 185.46243286 12.69859886 C181.80495494 15.53685549 178.22918682 15.70130023 173.72607422 15.63491821 C172.90847059 15.64271817 172.09086697 15.65051812 171.24848747 15.65855443 C168.51675849 15.67845214 165.7864261 15.6627191 163.0546875 15.64697266 C161.09311105 15.65374977 159.13154096 15.66265344 157.16998291 15.67352295 C151.84763226 15.6963115 146.52576638 15.68748162 141.20340729 15.67162752 C135.63282467 15.65896634 130.06228347 15.67070925 124.49169922 15.67855835 C115.13696849 15.68765425 105.78243514 15.67566846 96.42773438 15.65185547 C85.61327483 15.62464442 74.79928661 15.63345862 63.98483849 15.6609875 C54.69888462 15.68367916 45.41307262 15.68687833 36.12709999 15.67379415 C30.58137919 15.66600001 25.0358799 15.66495719 19.49017334 15.68147659 C14.27628269 15.69592279 9.06299954 15.6858965 3.8491745 15.65700531 C1.93598184 15.65039535 0.02273803 15.65229061 -1.89043427 15.66331863 C-4.50300379 15.67698944 -7.11362854 15.65984099 -9.72607422 15.63491821 C-10.48269411 15.64607182 -11.239314 15.65722543 -12.01886177 15.66871703 C-15.87122942 15.59746123 -18.4524104 15.03442053 -21.46243286 12.69859886 C-24.52362774 9.44314332 -24.82763292 7.39536046 -25 3 C-24.4225 3.763125 -23.845 4.52625 -23.25 5.3125 C-19.55493523 9.7281822 -19.55493523 9.7281822 -14.234375 11.41796875 C-9.88147294 10.85545604 -7.94020461 8.6135551 -5.125 5.5 C-4.62742187 4.97535156 -4.12984375 4.45070312 -3.6171875 3.91015625 C-2.39736085 2.61995498 -1.19669751 1.31168268 0 0 Z " fill="#CBCBCB" transform="translate(46,189)"/>
</svg>
